<?xml version="1.0" encoding="UTF-8"?>
<!DOCTYPE svg PUBLIC "-//W3C//DTD SVG 1.1//EN" "http://www.w3.org/Graphics/SVG/1.1/DTD/svg11.dtd">
<!-- Creator: CorelDRAW 2020 (64-Bit) -->
<svg xmlns="http://www.w3.org/2000/svg" xml:space="preserve" width="109px" height="113px" version="1.1" shape-rendering="geometricPrecision" text-rendering="geometricPrecision" image-rendering="optimizeQuality" fill-rule="evenodd" clip-rule="evenodd"
viewBox="0 0 25.6 26.51"
 xmlns:xlink="http://www.w3.org/1999/xlink"
 xmlns:xodm="http://www.corel.com/coreldraw/odm/2003">
 <g id="Layer_x0020_1">
  <metadata id="CorelCorpID_0Corel-Layer"/>
  <path fill="#ED2F59" fill-rule="nonzero" d="M22.79 9.98l-0.02 -0.01c0,0 0,0 0,-0.01l-9.97 -9.96 -9.96 9.96c0,0.01 0,0.01 0,0.01l-0.02 0.01c-1.52,1.54 -2.49,3.53 -2.75,5.68 -0.26,2.14 0.21,4.31 1.32,6.16 1.12,1.85 2.82,3.28 4.84,4.05 2.02,0.77 4.24,0.84 6.31,0.21 0.17,-0.06 0.36,-0.06 0.53,0 2.06,0.63 4.28,0.56 6.3,-0.21 2.02,-0.77 3.72,-2.2 4.84,-4.05 1.12,-1.85 1.58,-4.02 1.32,-6.16 -0.25,-2.15 -1.22,-4.14 -2.74,-5.68zm-16.41 6.57c-0.05,0.05 -0.09,0.11 -0.11,0.17 -0.03,0.07 -0.04,0.14 -0.04,0.2 0.02,1.76 0.51,3.48 1.44,4.98 0.02,0.03 0.03,0.07 0.02,0.11 0,0.04 -0.01,0.08 -0.04,0.11 -0.03,0.03 -0.06,0.05 -0.1,0.06 -0.04,0.01 -0.08,0.01 -0.12,-0.01 -0.69,-0.29 -1.32,-0.71 -1.85,-1.24 -1.09,-1.09 -1.7,-2.57 -1.7,-4.11 -0.01,-1.54 0.61,-3.02 1.69,-4.11l7.23 -7.23 7.23 7.23c1.09,1.09 1.7,2.57 1.7,4.11 0,1.54 -0.61,3.02 -1.7,4.11 -0.53,0.53 -1.17,0.95 -1.86,1.24 -0.04,0.02 -0.08,0.02 -0.12,0.01 -0.03,-0.01 -0.07,-0.03 -0.09,-0.06 -0.03,-0.03 -0.05,-0.07 -0.05,-0.11 0,-0.04 0.01,-0.08 0.03,-0.11 0.92,-1.5 1.42,-3.22 1.44,-4.98 0,-0.06 -0.02,-0.13 -0.04,-0.2 -0.03,-0.06 -0.07,-0.12 -0.12,-0.17l-3.42 -3.62c-0.03,-0.03 -0.07,-0.05 -0.12,-0.05 -0.04,0 -0.08,0.02 -0.12,0.05 -0.03,0.03 -0.06,0.07 -0.06,0.11 -0.01,0.04 0,0.09 0.02,0.13 1.33,2.4 0.18,5.85 -1.72,7.76l-0.01 0.01c-0.26,0.26 -0.62,0.4 -0.99,0.4 -0.37,0 -0.72,-0.14 -0.98,-0.4l-0.01 -0.01c-1.91,-1.91 -3.05,-5.36 -1.72,-7.76 0.02,-0.04 0.03,-0.09 0.02,-0.13 -0.01,-0.04 -0.03,-0.08 -0.07,-0.11 -0.03,-0.03 -0.07,-0.05 -0.12,-0.05 -0.04,0 -0.08,0.02 -0.12,0.05l-3.42 3.62z"/>
 </g>
</svg>
